<svg width="160" height="60" viewBox="0 0 160 60" fill="none" xmlns="http://www.w3.org/2000/svg">
<g clip-path="url(#clip0_3357_10792)">
<path d="M91.8661 45.3717C91.1906 45.3717 90.6425 45.3591 90.0944 45.3717C89.5077 45.3839 89.2651 45.6259 89.2651 46.197C89.2524 46.6787 89.2651 47.1617 89.2651 47.6439C89.2651 47.9865 89.1123 48.177 88.7551 48.177C88.3856 48.1901 87.9776 48.1517 88.0034 47.6949C88.0288 46.7685 87.8502 45.8417 87.9005 44.9022C87.939 44.3565 88.0152 43.7849 87.9132 43.2007C87.8112 42.668 87.939 42.097 87.9771 41.5376C87.9898 41.3349 88.1557 41.2717 88.3466 41.2717C89.5321 41.2464 90.7182 41.1453 91.9164 41.2464C92.6939 41.3096 93.4724 41.2464 94.2494 41.3349C94.9639 41.4107 95.6898 41.9949 95.7283 42.6929C95.7659 43.3149 95.9323 43.9623 95.5116 44.5587C95.1929 45.0029 94.759 45.2065 94.224 45.2823C93.3953 45.3839 92.5665 45.3586 91.8656 45.3717H91.8661ZM93.6886 44.026C93.8546 43.9623 93.9824 43.886 94.0713 43.7723C94.2621 43.5307 94.3265 43.2892 94.186 42.9976C94.0586 42.7439 93.8287 42.6554 93.5739 42.6554C92.3752 42.6432 91.177 42.6432 89.9787 42.6554C89.4687 42.668 89.2778 42.8838 89.2647 43.4423C89.2647 43.8617 89.5199 43.9754 89.9021 44.0133C90.603 44.0648 92.732 44.3696 93.6881 44.0264L93.6886 44.026Z" fill="#F3F3F3"/>
<path d="M107.65 41.2334C108.007 41.4108 108.21 41.6645 108.16 42.0965C108.096 42.5791 107.918 42.7186 107.407 42.7064C105.737 42.6802 104.055 42.6802 102.372 42.6802C101.926 42.6802 101.76 42.9082 101.747 43.3782C101.747 43.7845 101.862 44.0124 102.347 44.026C103.748 44.0892 105.151 44.1407 106.567 44.1014C107 44.0892 107.14 44.2675 107.127 44.686C107.115 45.346 107.051 45.486 106.553 45.486C105.228 45.4986 103.902 45.486 102.576 45.4986C101.977 45.4986 101.773 45.6629 101.76 46.1586C101.735 46.7044 102.104 47.0087 102.703 46.9071C103.723 46.7423 104.756 46.7934 105.776 46.9071C105.865 46.9202 105.979 46.945 106.057 46.9202C106.605 46.6534 107.14 46.7934 107.701 46.9202C108.122 47.0087 108.16 47.2502 108.16 47.5933C108.16 47.9603 107.956 48.1639 107.624 48.1761C106.54 48.2271 105.444 48.2271 104.36 48.2271C103.252 48.2393 102.143 48.1635 101.033 48.2149C100.6 48.2398 100.447 48.0492 100.358 47.6429C100.218 46.9834 100.256 46.3608 100.358 45.7135C100.447 45.1045 100.218 44.5077 100.256 43.8982C100.306 43.3019 100.409 42.7055 100.306 42.0956C100.218 41.613 100.485 41.4098 100.995 41.3846C101.926 41.3462 102.869 41.4861 103.787 41.2324H107.65V41.2334Z" fill="#F3F3F3"/>
<path d="M121.904 48.1391C121.419 48.1897 121.075 47.9734 120.795 47.4791C120.463 46.857 119.915 46.5144 119.15 46.5392C118.143 46.5649 117.136 46.578 116.129 46.527C115.517 46.5013 115.121 46.7423 114.828 47.2381C114.445 47.8475 113.974 48.2533 113.183 48.1396C112.661 48.0759 112.495 47.8475 112.763 47.4155C113.324 46.5144 114.051 45.7271 114.636 44.8517C115.274 43.8865 115.962 42.9728 116.638 42.0469C116.728 41.9191 116.83 41.7927 116.931 41.6781C117.454 41.1454 118.117 41.1959 118.614 41.7927C118.869 42.097 119.022 42.4649 119.226 42.7823C119.596 43.3786 120.017 43.9497 120.476 44.4838C121.241 45.3849 121.776 46.439 122.516 47.3649C122.898 47.8601 122.668 48.1391 121.904 48.1391ZM117.582 45.156C117.825 45.156 118.079 45.1817 118.334 45.1433C118.857 45.0797 118.958 44.8634 118.64 44.4449C118.41 44.1412 118.156 43.8743 117.977 43.5312C117.812 43.2008 117.582 43.176 117.39 43.505C117.149 43.9118 116.868 44.2797 116.588 44.6481C116.397 44.9271 116.486 45.1176 116.83 45.156C117.072 45.1817 117.327 45.156 117.582 45.156Z" fill="#F3F3F3"/>
<path d="M131.212 48.1513C130.217 48.1003 129.211 48.2529 128.216 48.0629C127.973 48.0118 127.732 48.2403 127.489 48.0371C127.285 47.8724 127.132 47.657 127.158 47.4024C127.208 46.9207 127.184 46.4381 127.196 45.956C127.222 45.4097 127.234 44.8513 127.208 44.2924C127.184 43.7845 127.171 43.2771 127.221 42.7692C127.247 42.4392 127.132 42.1097 127.234 41.7661C127.374 41.3219 127.515 41.2081 128.063 41.2329C128.521 41.2456 128.623 41.5124 128.623 41.8798C128.636 43.2382 128.623 44.5967 128.623 45.9555C128.623 46.5776 128.764 46.7929 129.376 46.7546C130.319 46.6909 131.263 46.8566 132.206 46.6909C132.767 46.5898 133.353 46.7297 133.927 46.704C134.335 46.6778 134.501 47.034 134.552 47.3898C134.616 47.7572 134.45 47.973 134.08 48.0619C133.341 48.2393 132.614 48.112 131.875 48.1504C131.658 48.163 131.441 48.1504 131.212 48.1504V48.1513Z" fill="#F3F3F3"/>
<path d="M143.897 44.9018C143.897 45.7265 143.91 46.5518 143.897 47.377C143.885 48.0113 143.655 48.2028 143.069 48.1765C142.788 48.1765 142.622 48.0754 142.597 47.7833C142.584 47.6434 142.52 47.5034 142.52 47.377C142.546 46.3234 142.533 45.2697 142.456 44.2287C142.431 43.8607 142.495 43.4923 142.444 43.1249C142.393 42.7944 142.227 42.6039 141.87 42.6428C141.131 42.7186 140.379 42.515 139.639 42.6428C139.333 42.6928 139.066 42.6297 139.04 42.2365C138.989 41.7539 139.168 41.3476 139.525 41.3728C140.774 41.4739 142.151 41.3602 143.412 41.3602C144.522 41.3602 145.732 41.4365 146.841 41.3602C147.109 41.3349 147.365 41.3986 147.378 41.7286C147.403 42.0839 147.416 42.4265 146.97 42.5665C146.804 42.6297 146.638 42.6428 146.472 42.6428H144.726C144.139 42.6428 143.935 42.8202 143.91 43.4039C143.884 43.9118 143.91 44.407 143.91 44.9018H143.897Z" fill="#F3F3F3"/>
<path d="M151.956 41.2586C152.976 41.2206 153.563 41.8044 154.06 42.4765C154.353 42.8833 154.723 43.2255 155.067 43.5812C155.398 43.9112 155.794 43.8738 156.151 43.5433C156.814 42.9334 157.361 42.1976 158.076 41.6396C158.459 41.3218 159.3 41.1191 159.746 41.3091C159.963 41.3981 160.09 41.5127 159.925 41.7791C159.746 42.0459 159.568 42.2991 159.288 42.5149C158.65 42.9971 158.114 43.6191 157.58 44.2286C157.35 44.4954 157.056 44.7243 156.802 44.9649C156.496 45.2448 156.317 45.5617 156.368 45.9933C156.432 46.5513 156.267 47.1102 156.267 47.6681C156.267 48.0997 155.999 48.2907 155.463 48.2397C155.17 48.2149 154.94 47.8587 154.94 47.5418C154.966 46.6276 155.093 45.6759 154.43 44.9144C153.997 44.4318 153.487 44.0123 153.003 43.5686C152.467 43.0612 151.907 42.5533 151.371 42.0197C151.103 41.7533 151.205 41.4102 151.575 41.3086C151.715 41.2581 151.881 41.2581 151.957 41.2581L151.956 41.2586Z" fill="#F3F3F3"/>
<path d="M95.4373 47.5595C94.8497 46.9215 93.746 45.6749 92.8307 44.6138C92.7987 44.6175 92.7668 44.6222 92.7315 44.6213C92.3978 44.61 91.6536 44.6283 91.2545 44.7505C92.2201 45.8289 93.7253 47.5103 94.3984 48.2625C94.7007 48.6061 94.9757 48.4952 95.4058 48.2082C95.6808 48.0299 95.71 47.8539 95.4373 47.5595Z" fill="#F3F3F3"/>
<path d="M51.3049 37.9669C50.7361 37.7576 50.1048 38.046 49.8946 38.6119C47.8803 44.024 43.98 48.5879 38.913 51.4606C33.791 54.3655 27.7763 55.3532 21.9792 54.2443C16.3471 53.1667 11.3736 50.2243 7.7695 45.9979C7.19929 46.0841 6.68831 46.2568 6.51767 46.7052C6.39451 47.0259 6.34985 47.3657 6.35737 47.7097C10.2581 52.1505 15.5677 55.2418 21.565 56.3896C27.8755 57.5968 34.4218 56.5206 39.9994 53.3587C45.5135 50.2313 49.7593 45.264 51.9527 39.3702C52.1628 38.8048 51.8727 38.1761 51.3054 37.9664L51.3049 37.9669Z" fill="#F3F3F3"/>
<path d="M4.86914 16.8262C4.73047 16.8 4.59509 16.7466 4.46957 16.6638C3.9647 16.33 3.82791 15.6522 4.16308 15.1495C7.07008 10.7883 11.1678 7.38526 16.0129 5.30927C20.9784 3.18273 26.4201 2.59715 31.749 3.61665C38.3029 4.87114 44.1315 8.47685 48.1582 13.7691C48.5244 14.2498 48.4294 14.9351 47.9467 15.2993C47.4644 15.6639 46.7757 15.5698 46.41 15.0891C42.7099 10.227 37.3566 6.91482 31.3349 5.76285C26.4385 4.82526 21.4405 5.3631 16.8803 7.31738C12.4271 9.22439 8.66225 12.3508 5.99029 16.3581C5.73833 16.7368 5.29081 16.9081 4.86914 16.8271V16.8262Z" fill="#F3F3F3"/>
<path d="M20.9723 59.4598C20.6738 59.4027 20.4801 59.1172 20.537 58.8204C20.5944 58.5241 20.8806 58.3308 21.1791 58.3874C28.071 59.7056 35.2013 58.4965 41.2583 54.9835C47.2575 51.5032 51.8065 46.0097 54.0709 39.5135C54.1691 39.2289 54.4832 39.0777 54.7685 39.1765C55.0548 39.2752 55.2061 39.5865 55.1065 39.8716C52.7579 46.6131 48.036 52.3153 41.8111 55.9271C35.5256 59.574 28.1237 60.8285 20.9723 59.4598Z" fill="#E03103"/>
<path d="M20.9723 59.4598C20.6738 59.4027 20.4801 59.1172 20.537 58.8204C20.5944 58.5241 20.8806 58.3308 21.1791 58.3874C28.071 59.7056 35.2013 58.4965 41.2583 54.9835C47.2575 51.5032 51.8065 46.0097 54.0709 39.5135C54.1691 39.2289 54.4832 39.0777 54.7685 39.1765C55.0548 39.2752 55.2061 39.5865 55.1065 39.8716C52.7579 46.6131 48.036 52.3153 41.8111 55.9271C35.5256 59.574 28.1237 60.8285 20.9723 59.4598Z" fill="black" fill-opacity="0.2"/>
<path d="M1.08864 15.5463C1.028 15.5351 0.968771 15.5135 0.912831 15.4794C0.651935 15.3268 0.56591 14.9916 0.720097 14.7323C3.84897 9.46298 8.46848 5.31802 14.0761 2.74633C19.8083 0.117523 26.1239 -0.643126 32.3412 0.546763C32.6388 0.603402 32.8339 0.889406 32.776 1.18571C32.7192 1.48201 32.4319 1.67627 32.1348 1.61916C26.1427 0.472805 20.0579 1.20584 14.5359 3.73774C9.13083 6.21723 4.67961 10.2105 1.66449 15.2879C1.54321 15.492 1.30958 15.5894 1.08864 15.5463Z" fill="#E03103"/>
<path d="M1.08864 15.5463C1.028 15.5351 0.968771 15.5135 0.912831 15.4794C0.651935 15.3268 0.56591 14.9916 0.720097 14.7323C3.84897 9.46298 8.46848 5.31802 14.0761 2.74633C19.8083 0.117523 26.1239 -0.643126 32.3412 0.546763C32.6388 0.603402 32.8339 0.889406 32.776 1.18571C32.7192 1.48201 32.4319 1.67627 32.1348 1.61916C26.1427 0.472805 20.0579 1.20584 14.5359 3.73774C9.13083 6.21723 4.67961 10.2105 1.66449 15.2879C1.54321 15.492 1.30958 15.5894 1.08864 15.5463Z" fill="black" fill-opacity="0.2"/>
<path d="M7.50161 34.2999C5.57051 34.2999 3.98868 34.2999 2.44775 33.85C1.66694 33.6244 0.968393 33.2359 0.455061 32.6639C0.0860458 32.2543 -0.243483 31.7226 0.249165 31.1295C0.722069 30.5776 1.46151 30.4344 2.09847 30.7204C2.63296 30.9652 2.98176 31.4567 3.55761 31.6411C5.42667 32.2141 7.31687 32.1935 9.20708 31.8658C9.55588 31.804 9.92584 31.804 10.2544 31.702C10.5628 31.62 10.9732 31.5381 10.9732 31.1496C10.9943 30.7817 10.6653 30.5771 10.3367 30.4952C9.53567 30.2897 8.73464 29.9845 7.91294 29.9424C6.26906 29.8816 4.66701 29.5951 3.10586 29.1247C2.13984 28.8382 1.11318 28.4899 0.723009 27.3651C0.291472 26.0357 0.825957 24.7265 2.1201 24.0721C3.59945 23.3353 5.20197 23.0493 6.84538 23.1513C7.6873 23.2131 8.509 23.1715 9.33118 23.2534C10.2554 23.3353 11.0155 23.765 11.8372 24.0515C12.5357 24.2757 12.9875 24.8285 13.3161 25.4628C13.4806 25.79 13.3781 26.0362 13.1718 26.2805C12.8023 26.7107 12.3914 27.0384 11.7954 26.8338C11.487 26.7313 11.1791 26.5876 10.9121 26.4242C9.08392 25.1763 7.07055 25.2175 5.01675 25.5859C4.48227 25.6678 3.61919 25.6271 3.61919 26.4242C3.61919 27.1404 4.42069 27.2631 4.95423 27.3244C6.35179 27.5299 7.76862 27.6928 9.18592 27.7953C10.3367 27.8772 11.5077 28.225 12.5969 28.8386C13.7678 29.5338 14.055 30.4957 13.8501 31.7024C13.6654 32.8277 12.7205 33.359 11.816 33.6057C10.2963 34.0345 8.79575 34.6687 7.50208 34.3003L7.50161 34.2999Z" fill="#F3F3F3"/>
<path d="M27.5313 29.8604C26.4431 29.8604 25.5598 29.8408 24.676 29.8604C23.7312 29.882 23.341 30.2705 23.341 31.1912C23.3199 31.9682 23.341 32.7457 23.341 33.5232C23.341 34.0761 23.0947 34.3827 22.5193 34.3827C21.9232 34.4033 21.2661 34.3415 21.307 33.6056C21.3479 32.1119 21.0606 30.6187 21.1429 29.1054C21.2045 28.2254 21.3276 27.3046 21.1631 26.3638C20.9986 25.5053 21.2045 24.5846 21.2661 23.6835C21.2867 23.3568 21.5533 23.2542 21.8617 23.2542C23.7721 23.214 25.683 23.0502 27.6141 23.214C28.8668 23.3156 30.1206 23.214 31.3733 23.3568C32.5236 23.4794 33.6951 24.4207 33.7562 25.546C33.8178 26.5482 34.0848 27.5916 33.4069 28.5526C32.8931 29.2683 32.1946 29.596 31.3324 29.7191C29.9964 29.8829 28.6614 29.8417 27.5313 29.8614V29.8604ZM30.4694 27.6927C30.7364 27.5906 30.9423 27.4675 31.0856 27.2836C31.3935 26.8951 31.4965 26.5061 31.2708 26.0361C31.065 25.627 30.695 25.4833 30.2846 25.4833C28.353 25.4627 26.4219 25.4627 24.4913 25.4833C23.6696 25.5044 23.3612 25.8512 23.341 26.7518C23.341 27.4263 23.7514 27.6108 24.3677 27.6726C25.4978 27.754 28.9284 28.245 30.4694 27.6927Z" fill="#F3F3F3"/>
<path d="M41.2145 23.2337C42.8579 23.1719 43.8037 24.1132 44.6043 25.1973C45.0767 25.8517 45.6723 26.404 46.2275 26.977C46.7615 27.5092 47.398 27.4474 47.9734 26.9157C49.0414 25.9331 49.9247 24.7475 51.0754 23.8469C51.6913 23.3352 53.0474 23.008 53.7671 23.3146C54.1159 23.4588 54.3218 23.6418 54.0544 24.072C53.7671 24.5012 53.4785 24.9099 53.0268 25.2577C51.9996 26.0357 51.1366 27.0383 50.274 28.0199C49.9045 28.4491 49.4316 28.8171 49.0207 29.206C48.5281 29.6559 48.2399 30.167 48.3226 30.8626C48.4256 31.7628 48.1576 32.6634 48.1576 33.5635C48.1576 34.2582 47.7266 34.5652 46.8635 34.4838C46.3915 34.4421 46.0216 33.8696 46.0216 33.358C46.062 31.8859 46.2679 30.351 45.1999 29.1241C44.5013 28.3471 43.6801 27.6716 42.8993 26.955C42.0362 26.1377 41.1327 25.3195 40.2692 24.4596C39.8381 24.0304 40.0031 23.4775 40.5982 23.3142C40.8239 23.2327 41.0913 23.2327 41.214 23.2327L41.2145 23.2337Z" fill="#F3F3F3"/>
<path d="M75.2764 29.0227C75.0507 32.3157 73.6329 33.8913 70.1407 34.2798C68.4352 34.4848 66.7091 34.4633 65.0046 34.2798C62.8882 34.0753 61.1217 32.8072 60.5881 30.639C60.197 29.0428 60.2393 27.3244 60.9985 25.8106C61.6355 24.543 62.8064 23.7655 64.2035 23.5001C66.3814 23.0905 68.5998 23.2951 70.8181 23.3564C72.1743 23.3766 73.2423 24.0932 74.167 25.0341C74.4542 25.3407 74.4542 25.7287 74.2901 26.0367C74.0645 26.4248 73.7556 26.8343 73.2221 26.8957C72.729 26.9565 72.2979 26.8549 71.8659 26.5685C69.6057 25.0954 67.1618 25.116 64.6967 25.8729C63.2587 26.3227 62.5803 27.5098 62.7449 28.9829C62.9503 30.9662 64.0804 31.9693 66.1144 32.1125C67.7367 32.2146 69.319 32.1125 70.8806 31.6622C71.3324 31.5185 71.7023 31.2943 72.0309 30.9662C72.2156 30.7626 72.462 30.537 72.3383 30.2505C72.2152 29.9238 71.9073 29.9439 71.62 29.9439C70.8392 29.9439 68.1894 29.9439 67.4081 29.9649C66.8332 29.9649 66.4839 29.7398 66.4016 29.1669C66.2987 28.3692 66.5864 27.8782 67.2229 27.7144C68.148 27.4897 70.921 27.7551 71.8452 27.7345C72.6053 27.7345 73.3241 27.4897 74.1058 27.6736C75.2561 27.939 75.2764 27.8576 75.2764 29.0236V29.0227Z" fill="#F3F3F3"/>
<path d="M89 34.3411C87.3984 34.2592 85.7752 34.505 84.1722 34.1984C83.782 34.116 83.3923 34.4844 83.0017 34.1572C82.6731 33.8913 82.4263 33.5435 82.4672 33.1344C82.5499 32.3569 82.5086 31.5794 82.5293 30.8028C82.5702 29.9228 82.5908 29.0227 82.5499 28.1221C82.5086 27.3043 82.4884 26.4865 82.5702 25.6679C82.6115 25.1352 82.4263 24.6048 82.5908 24.052C82.8165 23.3358 83.0431 23.1519 83.9263 23.1926C84.6663 23.2136 84.8308 23.6424 84.8308 24.236C84.851 26.4243 84.8308 28.6136 84.8308 30.8023C84.8308 31.8041 85.0569 32.1523 86.0427 32.0915C87.562 31.988 89.0827 32.2544 90.6029 31.988C91.5069 31.8242 92.4518 32.0498 93.3764 32.0091C94.0331 31.9679 94.3011 32.5404 94.3829 33.1128C94.4858 33.7064 94.2184 34.0542 93.6228 34.1979C92.4311 34.4839 91.2606 34.2793 90.0694 34.3407C89.7201 34.3612 89.3704 34.3407 89.0009 34.3407L89 34.3411Z" fill="#F3F3F3"/>
<path d="M116.529 34.3209C115.749 34.4028 115.194 34.0545 114.742 33.2569C114.208 32.2538 113.324 31.7019 112.091 31.7426C110.469 31.7838 108.846 31.804 107.223 31.7225C106.237 31.6813 105.601 32.0708 105.128 32.8684C104.512 33.85 103.751 34.5044 102.478 34.3209C101.635 34.2184 101.368 33.85 101.799 33.1544C102.703 31.7019 103.874 30.4338 104.82 29.0225C105.847 27.4675 106.956 25.9949 108.044 24.5017C108.189 24.2972 108.353 24.0931 108.517 23.9086C109.359 23.0492 110.428 23.1311 111.229 24.0931C111.64 24.5841 111.886 25.1762 112.215 25.6879C112.811 26.6498 113.489 27.5705 114.228 28.4295C115.461 29.882 116.324 31.5788 117.515 33.0725C118.131 33.8706 117.762 34.3209 116.529 34.3209ZM109.565 29.5122C109.955 29.5122 110.367 29.5543 110.777 29.4925C111.62 29.39 111.784 29.0422 111.27 28.3677C110.9 27.8767 110.49 27.447 110.203 26.8951C109.936 26.3629 109.566 26.3217 109.257 26.8543C108.867 27.5087 108.415 28.1018 107.963 28.6954C107.655 29.1452 107.799 29.4523 108.353 29.5126C108.743 29.5548 109.154 29.5122 109.565 29.5122Z" fill="#F3F3F3"/>
<path d="M132.492 34.2999C130.561 34.2999 128.979 34.2999 127.438 33.85C126.657 33.6244 125.959 33.2359 125.446 32.6639C125.076 32.2543 124.747 31.7226 125.24 31.1295C125.713 30.5776 126.452 30.4344 127.089 30.7204C127.624 30.9652 127.973 31.4567 128.548 31.6411C130.418 32.2141 132.307 32.1935 134.198 31.8658C134.546 31.804 134.916 31.804 135.245 31.702C135.553 31.62 135.964 31.5381 135.964 31.1496C135.984 30.7817 135.656 30.5771 135.328 30.4952C134.526 30.2897 133.725 29.9845 132.903 29.9424C131.26 29.8816 129.657 29.5951 128.095 29.1247C127.13 28.8382 126.103 28.4899 125.713 27.3651C125.282 26.0357 125.816 24.7265 127.11 24.0721C128.589 23.3353 130.192 23.0493 131.835 23.1513C132.678 23.2131 133.5 23.1715 134.321 23.2534C135.245 23.3353 136.006 23.765 136.827 24.0515C137.526 24.2757 137.978 24.8285 138.306 25.4628C138.471 25.79 138.368 26.0362 138.162 26.2805C137.792 26.7107 137.381 27.0384 136.785 26.8338C136.477 26.7313 136.17 26.5876 135.902 26.4242C134.073 25.1763 132.061 25.2175 130.006 25.5859C129.471 25.6678 128.609 25.6271 128.609 26.4242C128.609 27.1404 129.41 27.2631 129.944 27.3244C131.342 27.5299 132.759 27.6928 134.176 27.7953C135.327 27.8772 136.498 28.225 137.587 28.8386C138.758 29.5338 139.045 30.4957 138.84 31.7024C138.654 32.8277 137.71 33.359 136.806 33.6057C135.286 34.0345 133.786 34.6683 132.492 34.2999Z" fill="#F3F3F3"/>
<path d="M153.591 34.2999C151.66 34.2999 150.078 34.2999 148.538 33.85C147.756 33.6244 147.058 33.2359 146.544 32.6639C146.174 32.2543 145.847 31.7226 146.339 31.1295C146.812 30.5776 147.551 30.4344 148.188 30.7204C148.723 30.9652 149.072 31.4567 149.647 31.6411C151.516 32.2141 153.406 32.1935 155.296 31.8658C155.645 31.804 156.015 31.804 156.344 31.702C156.652 31.62 157.063 31.5381 157.063 31.1496C157.083 30.7817 156.755 30.5771 156.426 30.4952C155.625 30.2897 154.823 29.9845 154.002 29.9424C152.358 29.8816 150.756 29.5951 149.194 29.1247C148.229 28.8382 147.202 28.4899 146.812 27.3651C146.38 26.0357 146.915 24.7265 148.208 24.0721C149.687 23.3353 151.291 23.0493 152.934 23.1513C153.777 23.2131 154.598 23.1715 155.42 23.2534C156.344 23.3353 157.104 23.765 157.926 24.0515C158.624 24.2757 159.076 24.8285 159.405 25.4628C159.569 25.79 159.466 26.0362 159.261 26.2805C158.891 26.7107 158.481 27.0384 157.885 26.8338C157.576 26.7313 157.268 26.5876 157.001 26.4242C155.172 25.1763 153.159 25.2175 151.105 25.5859C150.571 25.6678 149.708 25.6271 149.708 26.4242C149.708 27.1404 150.509 27.2631 151.043 27.3244C152.441 27.5299 153.858 27.6928 155.275 27.7953C156.426 27.8772 157.596 28.225 158.686 28.8386C159.856 29.5338 160.145 30.4957 159.939 31.7024C159.754 32.8277 158.809 33.359 157.904 33.6057C156.385 34.0345 154.885 34.6683 153.591 34.2999Z" fill="#F3F3F3"/>
</g>
<defs>
<clipPath id="clip0_3357_10792">
<rect width="160" height="60" fill="white"/>
</clipPath>
</defs>
</svg>
