<svg width="160" height="60" viewBox="0 0 160 60" fill="none" xmlns="http://www.w3.org/2000/svg">
<g clip-path="url(#clip0_3299_3681)">
<path d="M91.8661 45.3715C91.1906 45.3715 90.6425 45.3589 90.0944 45.3715C89.5077 45.3837 89.2651 45.6257 89.2651 46.1967C89.2524 46.6784 89.2651 47.1615 89.2651 47.6436C89.2651 47.9863 89.1123 48.1768 88.7551 48.1768C88.3856 48.1899 87.9776 48.1515 88.0034 47.6946C88.0288 46.7683 87.8502 45.8415 87.9005 44.902C87.939 44.3562 88.0152 43.7847 87.9132 43.2005C87.8112 42.6678 87.939 42.0967 87.9771 41.5374C87.9898 41.3347 88.1557 41.2715 88.3466 41.2715C89.5321 41.2462 90.7182 41.1451 91.9164 41.2462C92.6939 41.3094 93.4724 41.2462 94.2494 41.3347C94.9639 41.4105 95.6898 41.9947 95.7283 42.6926C95.7659 43.3147 95.9323 43.9621 95.5116 44.5584C95.1929 45.0026 94.759 45.2063 94.224 45.2821C93.3953 45.3837 92.5665 45.3584 91.8656 45.3715H91.8661ZM93.6886 44.0257C93.8546 43.9621 93.9824 43.8858 94.0713 43.772C94.2621 43.5305 94.3265 43.289 94.186 42.9973C94.0586 42.7436 93.8287 42.6552 93.5739 42.6552C92.3752 42.643 91.177 42.643 89.9787 42.6552C89.4687 42.6678 89.2778 42.8836 89.2647 43.442C89.2647 43.8614 89.5199 43.9752 89.9021 44.0131C90.603 44.0646 92.732 44.3693 93.6881 44.0262L93.6886 44.0257Z" fill="#F3F3F3"/>
<path d="M107.65 41.2329C108.007 41.4103 108.21 41.664 108.16 42.096C108.096 42.5786 107.918 42.7181 107.407 42.706C105.737 42.6797 104.055 42.6797 102.372 42.6797C101.926 42.6797 101.76 42.9077 101.747 43.3777C101.747 43.784 101.862 44.0119 102.347 44.0255C103.748 44.0887 105.151 44.1402 106.567 44.1009C107 44.0887 107.14 44.267 107.127 44.6855C107.115 45.3455 107.051 45.4855 106.553 45.4855C105.228 45.4981 103.902 45.4855 102.576 45.4981C101.977 45.4981 101.773 45.6624 101.76 46.1581C101.735 46.7039 102.104 47.0082 102.703 46.9066C103.723 46.7418 104.756 46.7929 105.776 46.9066C105.865 46.9197 105.979 46.9445 106.057 46.9197C106.605 46.6529 107.14 46.7929 107.701 46.9197C108.122 47.0082 108.16 47.2497 108.16 47.5928C108.16 47.9598 107.956 48.1634 107.624 48.1756C106.54 48.2266 105.444 48.2266 104.36 48.2266C103.252 48.2388 102.143 48.163 101.033 48.2145C100.6 48.2393 100.447 48.0488 100.358 47.6425C100.218 46.9829 100.256 46.3603 100.358 45.713C100.447 45.104 100.218 44.5072 100.256 43.8977C100.306 43.3014 100.409 42.705 100.306 42.0951C100.218 41.6125 100.485 41.4093 100.995 41.3841C101.926 41.3457 102.869 41.4856 103.787 41.2319H107.65V41.2329Z" fill="#F3F3F3"/>
<path d="M121.904 48.1386C121.419 48.1892 121.075 47.9729 120.795 47.4786C120.463 46.8565 119.915 46.5139 119.15 46.5387C118.143 46.5644 117.136 46.5776 116.129 46.5265C115.517 46.5008 115.121 46.7419 114.828 47.2376C114.445 47.847 113.974 48.2529 113.183 48.1391C112.661 48.0754 112.495 47.847 112.763 47.415C113.324 46.5139 114.051 45.7266 114.636 44.8512C115.274 43.886 115.962 42.9723 116.638 42.0464C116.728 41.9186 116.83 41.7923 116.931 41.6776C117.454 41.1449 118.117 41.1954 118.614 41.7923C118.869 42.0965 119.022 42.4644 119.226 42.7818C119.596 43.3781 120.017 43.9492 120.476 44.4833C121.241 45.3844 121.776 46.4385 122.516 47.3644C122.898 47.8597 122.668 48.1386 121.904 48.1386ZM117.582 45.1555C117.825 45.1555 118.079 45.1812 118.334 45.1429C118.857 45.0792 118.958 44.8629 118.64 44.4445C118.41 44.1407 118.156 43.8739 117.977 43.5307C117.812 43.2003 117.582 43.1755 117.39 43.5045C117.149 43.9113 116.868 44.2792 116.588 44.6476C116.397 44.9266 116.486 45.1171 116.83 45.1555C117.072 45.1812 117.327 45.1555 117.582 45.1555Z" fill="#F3F3F3"/>
<path d="M131.212 48.1511C130.217 48.1001 129.211 48.2527 128.216 48.0626C127.973 48.0116 127.732 48.24 127.489 48.0369C127.285 47.8721 127.132 47.6568 127.158 47.4021C127.208 46.9205 127.184 46.4379 127.196 45.9557C127.222 45.4095 127.234 44.851 127.208 44.2921C127.184 43.7843 127.171 43.2769 127.221 42.769C127.247 42.439 127.132 42.1094 127.234 41.7659C127.374 41.3216 127.515 41.2079 128.063 41.2327C128.521 41.2453 128.623 41.5122 128.623 41.8796C128.636 43.238 128.623 44.5964 128.623 45.9553C128.623 46.5774 128.764 46.7927 129.376 46.7543C130.319 46.6906 131.263 46.8564 132.206 46.6906C132.767 46.5895 133.353 46.7295 133.927 46.7038C134.335 46.6775 134.501 47.0338 134.552 47.3895C134.616 47.757 134.45 47.9728 134.08 48.0617C133.341 48.2391 132.614 48.1118 131.875 48.1502C131.658 48.1628 131.441 48.1502 131.212 48.1502V48.1511Z" fill="#F3F3F3"/>
<path d="M143.897 44.9015C143.897 45.7263 143.91 46.5515 143.897 47.3768C143.885 48.0111 143.655 48.2025 143.069 48.1763C142.788 48.1763 142.622 48.0752 142.597 47.7831C142.584 47.6431 142.52 47.5032 142.52 47.3768C142.546 46.3231 142.533 45.2694 142.456 44.2284C142.431 43.8605 142.495 43.4921 142.444 43.1246C142.393 42.7942 142.227 42.6037 141.87 42.6425C141.131 42.7183 140.379 42.5147 139.639 42.6425C139.333 42.6926 139.066 42.6294 139.04 42.2362C138.989 41.7536 139.168 41.3473 139.525 41.3726C140.774 41.4737 142.151 41.3599 143.412 41.3599C144.522 41.3599 145.732 41.4362 146.841 41.3599C147.109 41.3347 147.365 41.3983 147.378 41.7283C147.403 42.0836 147.416 42.4263 146.97 42.5662C146.804 42.6294 146.638 42.6425 146.472 42.6425H144.726C144.139 42.6425 143.935 42.8199 143.91 43.4036C143.884 43.9115 143.91 44.4068 143.91 44.9015H143.897Z" fill="#F3F3F3"/>
<path d="M151.956 41.2583C152.976 41.2204 153.563 41.8041 154.06 42.4763C154.353 42.8831 154.723 43.2252 155.067 43.581C155.398 43.911 155.794 43.8735 156.151 43.5431C156.814 42.9331 157.361 42.1973 158.076 41.6393C158.459 41.3215 159.3 41.1188 159.746 41.3089C159.963 41.3978 160.09 41.5125 159.925 41.7788C159.746 42.0456 159.568 42.2989 159.288 42.5147C158.65 42.9968 158.114 43.6189 157.58 44.2284C157.35 44.4952 157.056 44.7241 156.802 44.9647C156.496 45.2446 156.317 45.5615 156.368 45.9931C156.432 46.551 156.267 47.1099 156.267 47.6679C156.267 48.0995 155.999 48.2905 155.463 48.2394C155.17 48.2146 154.94 47.8584 154.94 47.5415C154.966 46.6273 155.093 45.6757 154.43 44.9141C153.997 44.4315 153.487 44.0121 153.003 43.5684C152.467 43.0609 151.907 42.5531 151.371 42.0194C151.103 41.7531 151.205 41.41 151.575 41.3084C151.715 41.2578 151.881 41.2578 151.957 41.2578L151.956 41.2583Z" fill="#F3F3F3"/>
<path d="M95.4373 47.5595C94.8497 46.9215 93.746 45.6749 92.8307 44.6138C92.7987 44.6175 92.7668 44.6222 92.7315 44.6213C92.3978 44.61 91.6536 44.6283 91.2545 44.7505C92.2201 45.8289 93.7253 47.5103 94.3984 48.2625C94.7007 48.6061 94.9757 48.4952 95.4058 48.2082C95.6808 48.0299 95.71 47.8539 95.4373 47.5595Z" fill="#F3F3F3"/>
<path d="M51.3049 37.9671C50.7361 37.7579 50.1048 38.0462 49.8946 38.6121C47.8803 44.0242 43.98 48.5881 38.913 51.4608C33.791 54.3658 27.7763 55.3535 21.9792 54.2445C16.3471 53.167 11.3736 50.2246 7.7695 45.9982C7.19929 46.0843 6.68831 46.257 6.51767 46.7055C6.39451 47.0261 6.34985 47.3659 6.35737 47.71C10.2581 52.1508 15.5677 55.242 21.565 56.3898C27.8755 57.597 34.4218 56.5209 39.9994 53.3589C45.5135 50.2316 49.7593 45.2642 51.9527 39.3705C52.1628 38.805 51.8727 38.1764 51.3054 37.9666L51.3049 37.9671Z" fill="#F3F3F3"/>
<path d="M4.86914 16.8262C4.73047 16.8 4.59509 16.7466 4.46957 16.6638C3.9647 16.33 3.82791 15.6522 4.16308 15.1495C7.07008 10.7883 11.1678 7.38526 16.0129 5.30927C20.9784 3.18273 26.4201 2.59715 31.749 3.61665C38.3029 4.87114 44.1315 8.47685 48.1582 13.7691C48.5244 14.2498 48.4294 14.9351 47.9467 15.2993C47.4644 15.6639 46.7757 15.5698 46.41 15.0891C42.7099 10.227 37.3566 6.91482 31.3349 5.76285C26.4385 4.82526 21.4405 5.3631 16.8803 7.31738C12.4271 9.22439 8.66225 12.3508 5.99029 16.3581C5.73833 16.7368 5.29081 16.9081 4.86914 16.8271V16.8262Z" fill="#F3F3F3"/>
<path d="M20.9723 59.4601C20.6738 59.403 20.4801 59.1174 20.537 58.8207C20.5944 58.5244 20.8806 58.331 21.1791 58.3877C28.071 59.7058 35.2013 58.4967 41.2583 54.9837C47.2575 51.5034 51.8065 46.0099 54.0709 39.5137C54.1691 39.2291 54.4832 39.078 54.7685 39.1767C55.0548 39.2755 55.2061 39.5868 55.1065 39.8718C52.7579 46.6133 48.036 52.3156 41.8111 55.9274C35.5256 59.5743 28.1237 60.8288 20.9723 59.4601Z" fill="#E03103"/>
<path d="M20.9723 59.4601C20.6738 59.403 20.4801 59.1174 20.537 58.8207C20.5944 58.5244 20.8806 58.331 21.1791 58.3877C28.071 59.7058 35.2013 58.4967 41.2583 54.9837C47.2575 51.5034 51.8065 46.0099 54.0709 39.5137C54.1691 39.2291 54.4832 39.078 54.7685 39.1767C55.0548 39.2755 55.2061 39.5868 55.1065 39.8718C52.7579 46.6133 48.036 52.3156 41.8111 55.9274C35.5256 59.5743 28.1237 60.8288 20.9723 59.4601Z" fill="black" fill-opacity="0.2"/>
<path d="M1.08864 15.5463C1.028 15.5351 0.968771 15.5135 0.912831 15.4794C0.651935 15.3268 0.56591 14.9916 0.720097 14.7323C3.84897 9.46298 8.46848 5.31802 14.0761 2.74633C19.8083 0.117523 26.1239 -0.643126 32.3412 0.546763C32.6388 0.603402 32.8339 0.889406 32.776 1.18571C32.7192 1.48201 32.4319 1.67627 32.1348 1.61916C26.1427 0.472805 20.0579 1.20584 14.5359 3.73774C9.13083 6.21723 4.67961 10.2105 1.66449 15.2879C1.54321 15.492 1.30958 15.5894 1.08864 15.5463Z" fill="#E03103"/>
<path d="M1.08864 15.5463C1.028 15.5351 0.968771 15.5135 0.912831 15.4794C0.651935 15.3268 0.56591 14.9916 0.720097 14.7323C3.84897 9.46298 8.46848 5.31802 14.0761 2.74633C19.8083 0.117523 26.1239 -0.643126 32.3412 0.546763C32.6388 0.603402 32.8339 0.889406 32.776 1.18571C32.7192 1.48201 32.4319 1.67627 32.1348 1.61916C26.1427 0.472805 20.0579 1.20584 14.5359 3.73774C9.13083 6.21723 4.67961 10.2105 1.66449 15.2879C1.54321 15.492 1.30958 15.5894 1.08864 15.5463Z" fill="black" fill-opacity="0.2"/>
<path d="M7.50161 34.2999C5.57051 34.2999 3.98868 34.2999 2.44775 33.85C1.66694 33.6244 0.968393 33.2359 0.455061 32.6639C0.0860458 32.2543 -0.243483 31.7226 0.249165 31.1295C0.722069 30.5776 1.46151 30.4344 2.09847 30.7204C2.63296 30.9652 2.98176 31.4567 3.55761 31.6411C5.42667 32.2141 7.31687 32.1935 9.20708 31.8658C9.55588 31.804 9.92584 31.804 10.2544 31.702C10.5628 31.62 10.9732 31.5381 10.9732 31.1496C10.9943 30.7817 10.6653 30.5771 10.3367 30.4952C9.53567 30.2897 8.73464 29.9845 7.91294 29.9424C6.26906 29.8816 4.66701 29.5951 3.10586 29.1247C2.13984 28.8382 1.11318 28.4899 0.723009 27.3651C0.291472 26.0357 0.825957 24.7265 2.1201 24.0721C3.59945 23.3353 5.20197 23.0493 6.84538 23.1513C7.6873 23.2131 8.509 23.1715 9.33118 23.2534C10.2554 23.3353 11.0155 23.765 11.8372 24.0515C12.5357 24.2757 12.9875 24.8285 13.3161 25.4628C13.4806 25.79 13.3781 26.0362 13.1718 26.2805C12.8023 26.7107 12.3914 27.0384 11.7954 26.8338C11.487 26.7313 11.1791 26.5876 10.9121 26.4242C9.08392 25.1763 7.07055 25.2175 5.01675 25.5859C4.48227 25.6678 3.61919 25.6271 3.61919 26.4242C3.61919 27.1404 4.42069 27.2631 4.95423 27.3244C6.35179 27.5299 7.76862 27.6928 9.18592 27.7953C10.3367 27.8772 11.5077 28.225 12.5969 28.8386C13.7678 29.5338 14.055 30.4957 13.8501 31.7024C13.6654 32.8277 12.7205 33.359 11.816 33.6057C10.2963 34.0345 8.79575 34.6687 7.50208 34.3003L7.50161 34.2999Z" fill="#F3F3F3"/>
<path d="M27.5313 29.8604C26.4431 29.8604 25.5598 29.8408 24.676 29.8604C23.7312 29.882 23.341 30.2705 23.341 31.1912C23.3199 31.9682 23.341 32.7457 23.341 33.5232C23.341 34.0761 23.0947 34.3827 22.5193 34.3827C21.9232 34.4033 21.2661 34.3415 21.307 33.6056C21.3479 32.1119 21.0606 30.6187 21.1429 29.1054C21.2045 28.2254 21.3276 27.3046 21.1631 26.3638C20.9986 25.5053 21.2045 24.5846 21.2661 23.6835C21.2867 23.3568 21.5533 23.2542 21.8617 23.2542C23.7721 23.214 25.683 23.0502 27.6141 23.214C28.8668 23.3156 30.1206 23.214 31.3733 23.3568C32.5236 23.4794 33.6951 24.4207 33.7562 25.546C33.8178 26.5482 34.0848 27.5916 33.4069 28.5526C32.8931 29.2683 32.1946 29.596 31.3324 29.7191C29.9964 29.8829 28.6614 29.8417 27.5313 29.8614V29.8604ZM30.4694 27.6927C30.7364 27.5906 30.9423 27.4675 31.0856 27.2836C31.3935 26.8951 31.4965 26.5061 31.2708 26.0361C31.065 25.627 30.695 25.4833 30.2846 25.4833C28.353 25.4627 26.4219 25.4627 24.4913 25.4833C23.6696 25.5044 23.3612 25.8512 23.341 26.7518C23.341 27.4263 23.7514 27.6108 24.3677 27.6726C25.4978 27.754 28.9284 28.245 30.4694 27.6927Z" fill="#F3F3F3"/>
<path d="M41.2145 23.2339C42.8579 23.1721 43.8037 24.1134 44.6043 25.1975C45.0767 25.8519 45.6723 26.4043 46.2275 26.9772C46.7615 27.5095 47.398 27.4477 47.9734 26.9159C49.0414 25.9334 49.9247 24.7477 51.0754 23.8471C51.6913 23.3355 53.0474 23.0083 53.7671 23.3149C54.1159 23.4591 54.3218 23.6421 54.0544 24.0723C53.7671 24.5015 53.4785 24.9101 53.0268 25.2579C51.9996 26.0359 51.1366 27.0386 50.274 28.0201C49.9045 28.4494 49.4316 28.8173 49.0207 29.2063C48.5281 29.6561 48.2399 30.1673 48.3226 30.8629C48.4256 31.763 48.1576 32.6636 48.1576 33.5638C48.1576 34.2584 47.7266 34.5655 46.8635 34.484C46.3915 34.4424 46.0216 33.8699 46.0216 33.3583C46.062 31.8861 46.2679 30.3512 45.1999 29.1244C44.5013 28.3473 43.6801 27.6719 42.8993 26.9552C42.0362 26.1379 41.1327 25.3197 40.2692 24.4598C39.8381 24.0306 40.0031 23.4778 40.5982 23.3144C40.8239 23.233 41.0913 23.233 41.214 23.233L41.2145 23.2339Z" fill="#F3F3F3"/>
<path d="M75.2764 29.0227C75.0507 32.3157 73.6329 33.8913 70.1407 34.2798C68.4352 34.4848 66.7091 34.4633 65.0046 34.2798C62.8882 34.0753 61.1217 32.8072 60.5881 30.639C60.197 29.0428 60.2393 27.3244 60.9985 25.8106C61.6355 24.543 62.8064 23.7655 64.2035 23.5001C66.3814 23.0905 68.5998 23.2951 70.8181 23.3564C72.1743 23.3766 73.2423 24.0932 74.167 25.0341C74.4542 25.3407 74.4542 25.7287 74.2901 26.0367C74.0645 26.4248 73.7556 26.8343 73.2221 26.8957C72.729 26.9565 72.2979 26.8549 71.8659 26.5685C69.6057 25.0954 67.1618 25.116 64.6967 25.8729C63.2587 26.3227 62.5803 27.5098 62.7449 28.9829C62.9503 30.9662 64.0804 31.9693 66.1144 32.1125C67.7367 32.2146 69.319 32.1125 70.8806 31.6622C71.3324 31.5185 71.7023 31.2943 72.0309 30.9662C72.2156 30.7626 72.462 30.537 72.3383 30.2505C72.2152 29.9238 71.9073 29.9439 71.62 29.9439C70.8392 29.9439 68.1894 29.9439 67.4081 29.9649C66.8332 29.9649 66.4839 29.7398 66.4016 29.1669C66.2987 28.3692 66.5864 27.8782 67.2229 27.7144C68.148 27.4897 70.921 27.7551 71.8452 27.7345C72.6053 27.7345 73.3241 27.4897 74.1058 27.6736C75.2561 27.939 75.2764 27.8576 75.2764 29.0236V29.0227Z" fill="#F3F3F3"/>
<path d="M89 34.3409C87.3984 34.259 85.7752 34.5047 84.1722 34.1981C83.782 34.1157 83.3923 34.4841 83.0017 34.1569C82.6731 33.891 82.4263 33.5433 82.4672 33.1341C82.5499 32.3566 82.5086 31.5791 82.5293 30.8026C82.5702 29.9226 82.5908 29.0224 82.5499 28.1218C82.5086 27.3041 82.4884 26.4863 82.5702 25.6676C82.6115 25.1349 82.4263 24.6046 82.5908 24.0518C82.8165 23.3356 83.0431 23.1516 83.9263 23.1923C84.6663 23.2134 84.8308 23.6422 84.8308 24.2357C84.851 26.424 84.8308 28.6133 84.8308 30.8021C84.8308 31.8038 85.0569 32.1521 86.0427 32.0912C87.562 31.9878 89.0827 32.2541 90.6029 31.9878C91.5069 31.8239 92.4518 32.0496 93.3764 32.0088C94.0331 31.9677 94.3011 32.5401 94.3829 33.1126C94.4858 33.7061 94.2184 34.0539 93.6228 34.1976C92.4311 34.4836 91.2606 34.2791 90.0694 34.3404C89.7201 34.361 89.3704 34.3404 89.0009 34.3404L89 34.3409Z" fill="#F3F3F3"/>
<path d="M116.529 34.3211C115.749 34.403 115.194 34.0548 114.742 33.2572C114.208 32.254 113.324 31.7022 112.091 31.7429C110.469 31.7841 108.846 31.8042 107.223 31.7227C106.237 31.6816 105.601 32.071 105.128 32.8686C104.512 33.8502 103.751 34.5046 102.478 34.3211C101.635 34.2186 101.368 33.8502 101.799 33.1546C102.703 31.7022 103.874 30.4341 104.82 29.0228C105.847 27.4678 106.956 25.9952 108.044 24.502C108.189 24.2974 108.353 24.0933 108.517 23.9089C109.359 23.0495 110.428 23.1314 111.229 24.0933C111.64 24.5843 111.886 25.1765 112.215 25.6881C112.811 26.65 113.489 27.5708 114.228 28.4297C115.461 29.8822 116.324 31.579 117.515 33.0727C118.131 33.8708 117.762 34.3211 116.529 34.3211ZM109.565 29.5124C109.955 29.5124 110.367 29.5545 110.777 29.4928C111.62 29.3902 111.784 29.0425 111.27 28.3679C110.9 27.8769 110.49 27.4472 110.203 26.8953C109.936 26.3631 109.566 26.3219 109.257 26.8546C108.867 27.509 108.415 28.1021 107.963 28.6956C107.655 29.1454 107.799 29.4525 108.353 29.5129C108.743 29.555 109.154 29.5124 109.565 29.5124Z" fill="#F3F3F3"/>
<path d="M132.492 34.2999C130.561 34.2999 128.979 34.2999 127.438 33.85C126.657 33.6244 125.959 33.2359 125.446 32.6639C125.076 32.2543 124.747 31.7226 125.24 31.1295C125.713 30.5776 126.452 30.4344 127.089 30.7204C127.624 30.9652 127.973 31.4567 128.548 31.6411C130.418 32.2141 132.307 32.1935 134.198 31.8658C134.546 31.804 134.916 31.804 135.245 31.702C135.553 31.62 135.964 31.5381 135.964 31.1496C135.984 30.7817 135.656 30.5771 135.328 30.4952C134.526 30.2897 133.725 29.9845 132.903 29.9424C131.26 29.8816 129.657 29.5951 128.095 29.1247C127.13 28.8382 126.103 28.4899 125.713 27.3651C125.282 26.0357 125.816 24.7265 127.11 24.0721C128.589 23.3353 130.192 23.0493 131.835 23.1513C132.678 23.2131 133.5 23.1715 134.321 23.2534C135.245 23.3353 136.006 23.765 136.827 24.0515C137.526 24.2757 137.978 24.8285 138.306 25.4628C138.471 25.79 138.368 26.0362 138.162 26.2805C137.792 26.7107 137.381 27.0384 136.785 26.8338C136.477 26.7313 136.17 26.5876 135.902 26.4242C134.073 25.1763 132.061 25.2175 130.006 25.5859C129.471 25.6678 128.609 25.6271 128.609 26.4242C128.609 27.1404 129.41 27.2631 129.944 27.3244C131.342 27.5299 132.759 27.6928 134.176 27.7953C135.327 27.8772 136.498 28.225 137.587 28.8386C138.758 29.5338 139.045 30.4957 138.84 31.7024C138.654 32.8277 137.71 33.359 136.806 33.6057C135.286 34.0345 133.786 34.6683 132.492 34.2999Z" fill="#F3F3F3"/>
<path d="M153.591 34.2999C151.66 34.2999 150.078 34.2999 148.538 33.85C147.756 33.6244 147.058 33.2359 146.544 32.6639C146.174 32.2543 145.847 31.7226 146.339 31.1295C146.812 30.5776 147.551 30.4344 148.188 30.7204C148.723 30.9652 149.072 31.4567 149.647 31.6411C151.516 32.2141 153.406 32.1935 155.296 31.8658C155.645 31.804 156.015 31.804 156.344 31.702C156.652 31.62 157.063 31.5381 157.063 31.1496C157.083 30.7817 156.755 30.5771 156.426 30.4952C155.625 30.2897 154.823 29.9845 154.002 29.9424C152.358 29.8816 150.756 29.5951 149.194 29.1247C148.229 28.8382 147.202 28.4899 146.812 27.3651C146.38 26.0357 146.915 24.7265 148.208 24.0721C149.687 23.3353 151.291 23.0493 152.934 23.1513C153.777 23.2131 154.598 23.1715 155.42 23.2534C156.344 23.3353 157.104 23.765 157.926 24.0515C158.624 24.2757 159.076 24.8285 159.405 25.4628C159.569 25.79 159.466 26.0362 159.261 26.2805C158.891 26.7107 158.481 27.0384 157.885 26.8338C157.576 26.7313 157.268 26.5876 157.001 26.4242C155.172 25.1763 153.159 25.2175 151.105 25.5859C150.571 25.6678 149.708 25.6271 149.708 26.4242C149.708 27.1404 150.509 27.2631 151.043 27.3244C152.441 27.5299 153.858 27.6928 155.275 27.7953C156.426 27.8772 157.596 28.225 158.686 28.8386C159.856 29.5338 160.145 30.4957 159.939 31.7024C159.754 32.8277 158.809 33.359 157.904 33.6057C156.385 34.0345 154.885 34.6683 153.591 34.2999Z" fill="#F3F3F3"/>
</g>
<defs>
<clipPath id="clip0_3299_3681">
<rect width="160" height="60" fill="white"/>
</clipPath>
</defs>
</svg>
